<svg xmlns="http://www.w3.org/2000/svg" viewBox="0 0 200 200" role="img" aria-label="Del5"><rect width="200" height="200" rx="44" fill="#FFC629"/><g transform="translate(48 20) rotate(8 52 80)"><path fill-rule="evenodd" fill="#0E1726" d="M28 0H76A28 28 0 0 1 104 28V132A28 28 0 0 1 76 160H28A28 28 0 0 1 0 132V28A28 28 0 0 1 28 0ZM43.5 17H60.5A4.5 4.5 0 0 1 60.5 26H43.5A4.5 4.5 0 0 1 43.5 17Z"/><path d="M53 11H16V40A24 24 0 1 1 11 77.8" transform="translate(20 46)" fill="none" stroke="#FFC629" stroke-width="22" stroke-linecap="round" stroke-linejoin="round"/></g></svg>